<?xml version="1.0" encoding="utf-8"?>
<!-- Generator: Adobe Illustrator 24.1.1, SVG Export Plug-In . SVG Version: 6.00 Build 0)  -->
<svg version="1.1" id="Layer_1" xmlns="http://www.w3.org/2000/svg" xmlns:xlink="http://www.w3.org/1999/xlink" x="0px" y="0px"
	 viewBox="0 0 512 512" style="enable-background:new 0 0 512 512;" xml:space="preserve">
<style type="text/css">
	.st0{fill:#BDC3C7;}
	.st1{fill:#ECF0F1;}
	.st2{fill:#E74C3C;}
	.st3{fill:#C0392B;}
	.st4{fill:#95A5A6;}
</style>
<g id="XMLID_1_">
	<path id="XMLID_3_" class="st0" d="M85.1,73.3c-26.8,0-48.8,22.1-48.8,48.8v341.1c0,26.8,22.1,48.8,48.8,48.8h146.5h48.8h146.5
		c26.8,0,48.8-22.1,48.8-48.8V122.1c0-26.8-22.1-48.8-48.8-48.8H280.4h-48.8H85.1z"/>
	<path id="XMLID_4_" class="st1" d="M85.1,48.8c-26.8,0-48.8,22.1-48.8,48.8v341.1c0,26.8,22.1,48.8,48.8,48.8h146.5h48.8h146.5
		c26.8,0,48.8-22.1,48.8-48.8V97.7c0-26.8-22.1-48.8-48.8-48.8H280.4h-48.8H85.1z"/>
	<path id="XMLID_5_" class="st2" d="M85.1,48.8c-26.8,0-48.8,22.1-48.8,48.8v73.3v24.4H475v-24.4V97.7c0-26.8-22.1-48.8-48.8-48.8
		H280.4h-48.8H85.1z"/>
	<circle id="XMLID_6_" class="st3" cx="109.5" cy="109.5" r="36.2"/>
	<circle id="XMLID_7_" class="st3" cx="402.5" cy="109.5" r="36.2"/>
	<path id="XMLID_13_" class="st0" d="M85.1,244.2V293h48.8v-48.8H85.1z M158.3,244.2V293h48.8v-48.8H158.3z M231.6,244.2V293h48.8
		v-48.8H231.6z M304.8,244.2V293h48.8v-48.8H304.8z M378.1,244.2V293h48.8v-48.8H378.1z"/>
	<path id="XMLID_19_" class="st0" d="M85.1,316.7v48.8h48.8v-48.8H85.1z M158.3,316.7v48.8h48.8v-48.8H158.3z M231.6,316.7v48.8
		h48.8v-48.8H231.6z M304.8,316.7v48.8h48.8v-48.8H304.8z M378.1,316.7v48.8h48.8v-48.8H378.1z"/>
	<path id="XMLID_25_" class="st0" d="M85.1,389.9v48.8h48.8v-48.8H85.1z M158.3,389.9v48.8h48.8v-48.8H158.3z M231.6,389.9v48.8
		h48.8v-48.8H231.6z M304.8,389.9v48.8h48.8v-48.8H304.8z M378.1,389.9v48.8h48.8v-48.8H378.1z"/>
	<path id="XMLID_28_" class="st4" d="M109.5,0C96.1,0,85.1,11,85.1,24.4v73.3c0,13.4,11,24.4,24.4,24.4s24.4-11,24.4-24.4V24.4
		C133.9,11,122.9,0,109.5,0z M402.5,0c-13.4,0-24.4,11-24.4,24.4v73.3c0,13.4,11,24.4,24.4,24.4c13.4,0,24.4-11,24.4-24.4V24.4
		C426.9,11,415.9,0,402.5,0z"/>
	<path id="XMLID_31_" class="st0" d="M109.5,0C96.1,0,85.1,9.5,85.1,24.4v48.8h48.8V24.4C133.9,9.5,122.9,0,109.5,0z M402.5,0
		c-13.4,0-24.4,9.5-24.4,24.4v48.8h48.8V24.4C426.9,9.5,415.9,0,402.5,0z"/>
</g>
</svg>
